<?xml version="1.0" encoding="iso-8859-1"?>
<!-- Generator: Adobe Illustrator 17.1.0, SVG Export Plug-In . SVG Version: 6.00 Build 0)  -->
<!DOCTYPE svg PUBLIC "-//W3C//DTD SVG 1.1//EN" "http://www.w3.org/Graphics/SVG/1.1/DTD/svg11.dtd">
<svg version="1.1" id="Layer_1" xmlns="http://www.w3.org/2000/svg" xmlns:xlink="http://www.w3.org/1999/xlink" x="0px" y="0px"
	 viewBox="0 0 64 64" style="enable-background:new 0 0 64 64;" xml:space="preserve">
<g>
	<path d="M14.28,25.556C14.101,25.743,14,25.991,14,26.25V31c0,0.552,0.447,1,1,1h9.382l2.724,5.447C27.275,37.786,27.621,38,28,38
		h9.219c0.379,0,0.725-0.214,0.895-0.553L40.837,32H50c0.553,0,1-0.448,1-1v-4.75c0-0.258-0.1-0.506-0.278-0.692L40.67,15.072
		C39.893,3.799,33.405,2.096,33.127,2.028C33.049,2.009,32.97,2,32.891,2h-0.672c-0.079,0-0.157,0.009-0.234,0.028
		c-0.28,0.067-6.82,1.77-7.6,13.043L14.28,25.556z M29.625,10.062c0-1.484,1.259-2.688,2.812-2.688s2.812,1.203,2.812,2.688
		s-1.259,2.688-2.812,2.688S29.625,11.547,29.625,10.062z"/>
	<path d="M44,62h8c0.553,0,1-0.447,1-1V45c0-0.254-0.097-0.499-0.271-0.684l-3.75-4C48.79,40.114,48.526,40,48.25,40h-31.5
		c-0.276,0-0.54,0.114-0.729,0.316l-3.75,4C12.097,44.501,12,44.746,12,45v16c0,0.553,0.447,1,1,1h8c0.553,0,1-0.447,1-1v-6.611
		L26.939,49h11.121L43,54.389V61C43,61.553,43.447,62,44,62z"/>
	<path d="M31.704,50c-0.001,0-0.002,0-0.003,0c-1.378,0-2.437,0.869-2.982,2.185c-0.73,1.76-0.373,4.444,0.763,5.624
		c1.451,1.509,2.038,3.791,2.044,3.814C31.58,61.837,31.77,62,31.991,62c0.007,0,0.014,0,0.02,0c0.214,0,0.405-0.15,0.474-0.354
		l0.057-0.19c0.185-0.588,0.527-1.71,2.281-4.048c1.139-1.52,1.367-3.57,0.581-5.142C34.718,50.894,33.401,50,31.704,50z"/>
</g>
</svg>
