<?xml version="1.0" encoding="iso-8859-1"?>
<!-- Generator: Adobe Illustrator 17.1.0, SVG Export Plug-In . SVG Version: 6.00 Build 0)  -->
<!DOCTYPE svg PUBLIC "-//W3C//DTD SVG 1.1//EN" "http://www.w3.org/Graphics/SVG/1.1/DTD/svg11.dtd">
<svg version="1.1" id="Capa_1" xmlns="http://www.w3.org/2000/svg" xmlns:xlink="http://www.w3.org/1999/xlink" x="0px" y="0px"
	 viewBox="0 0 100 100" style="enable-background:new 0 0 100 100;" xml:space="preserve">
<path d="M35.451,4.065C32.788,4.065,30.329,7,28.345,11h14.213C40.573,7,38.114,4.065,35.451,4.065z"/>
<path d="M90,86h-2.025C87.987,85.834,88,85.669,88,85.5v-72C88,9.916,85.084,7,81.5,7h-9C68.916,7,66,9.916,66,13.5V33H47.885
	C47.716,32.953,48,32.901,47,32.865v-4.016C47,25.565,46.048,19,43.9,14H27.002C24.854,19,24,25.565,24,28.849v4.016
	C15,34.707,8.102,51,8.102,70H21v3.203c0,1.703,0.907,3.231,2.074,4.294c0.475,0.433,0.914,1.203,0.785,1.833l-0.405,2.358
	C23.324,82.318,23.783,83,24.426,83h4.309c0.643,0,1.059-0.682,0.93-1.312l-0.278-1.453C29.257,79.606,29.673,79,30.316,79h1.4
	c0.643,0,1.059,0.521,0.93,1.15l-0.278,1.533C32.238,82.313,32.654,83,33.297,83h4.309c0.643,0,1.059-0.682,0.93-1.312l-0.278-1.453
	C38.128,79.606,38.544,79,39.187,79h1.4c0.643,0,1.059,0.521,0.93,1.15l-0.278,1.533C41.109,82.313,41.525,83,42.167,83h4.309
	c0.643,0,1.059-0.682,0.93-1.312l-0.449-2.272c-0.129-0.629,0.445-1.443,0.92-1.876C49.044,76.478,50,74.906,50,73.203V70h12.8
	c0-14-3.333-25.476-8.312-32H66v47.5c0,0.169,0.013,0.334,0.025,0.5H10c-2.209,0-4,1.791-4,4v7h88v-7C94,87.791,92.209,86,90,86z
	 M35.451,35.546c2.088,0,3.781,1.693,3.781,3.781c0,2.088-1.693,3.781-3.781,3.781c-2.088,0-3.781-1.693-3.781-3.781
	C31.67,37.239,33.363,35.546,35.451,35.546z M35.451,63.423c-3.915,0-7.089-3.174-7.089-7.089s3.174-7.089,7.089-7.089
	s7.089,3.174,7.089,7.089S39.366,63.423,35.451,63.423z M83,57.402l-10.31-7.985L83,41.432V57.402z M83,16.432v14.97l-9.664-7.485
	L83,16.432z M71,28.432l10.31,7.985L71,44.402V28.432z M71,54.432l10.31,7.985L71,70.402V54.432z M83,67.432v15.97l-10.31-7.985
	L83,67.432z M71,13.5c0-0.827,0.673-1.5,1.5-1.5h8.057L71,19.402V13.5z M71,85.5v-5.068L78.189,86h-7.097
	C71.036,85.843,71,85.676,71,85.5z"/>
</svg>
